ply
format ascii 1.0
comment VCGLIB generated
element vertex 38
property float x
property float y
property float z
element face 72
property list uchar int vertex_indices
end_header
0 -25 0 
0 25 0 
70 -25 0 
68.9365 -25 12.1554 
65.7785 -25 23.9414 
60.6218 -25 35 
53.6231 -25 44.9951 
44.9951 -25 53.6231 
35 -25 60.6218 
23.9414 -25 65.7785 
12.1554 -25 68.9365 
4.28612e-15 -25 70 
-12.1554 -25 68.9365 
-23.9414 -25 65.7785 
-35 -25 60.6218 
-44.9951 -25 53.6231 
-53.6231 -25 44.9951 
-60.6218 -25 35 
-65.7785 -25 23.9414 
-68.9365 -25 12.1554 
-70 -25 8.57224e-15 
-68.9365 -25 -12.1554 
-65.7785 -25 -23.9414 
-60.6218 -25 -35 
-53.6231 -25 -44.9951 
-44.9951 -25 -53.6231 
-35 -25 -60.6218 
-23.9414 -25 -65.7785 
-12.1554 -25 -68.9365 
-1.28584e-14 -25 -70 
12.1554 -25 -68.9365 
23.9414 -25 -65.7785 
35 -25 -60.6218 
44.9951 -25 -53.6231 
53.6231 -25 -44.9951 
60.6218 -25 -35 
65.7785 -25 -23.9414 
68.9365 -25 -12.1554 
3 0 2 3 
3 0 3 4 
3 0 4 5 
3 0 5 6 
3 0 6 7 
3 0 7 8 
3 0 8 9 
3 0 9 10 
3 0 10 11 
3 0 11 12 
3 0 12 13 
3 0 13 14 
3 0 14 15 
3 0 15 16 
3 0 16 17 
3 0 17 18 
3 0 18 19 
3 0 19 20 
3 0 20 21 
3 0 21 22 
3 0 22 23 
3 0 23 24 
3 0 24 25 
3 0 25 26 
3 0 26 27 
3 0 27 28 
3 0 28 29 
3 0 29 30 
3 0 30 31 
3 0 31 32 
3 0 32 33 
3 0 33 34 
3 0 34 35 
3 0 35 36 
3 0 36 37 
3 0 37 2 
3 1 3 2 
3 1 4 3 
3 1 5 4 
3 1 6 5 
3 1 7 6 
3 1 8 7 
3 1 9 8 
3 1 10 9 
3 1 11 10 
3 1 12 11 
3 1 13 12 
3 1 14 13 
3 1 15 14 
3 1 16 15 
3 1 17 16 
3 1 18 17 
3 1 19 18 
3 1 20 19 
3 1 21 20 
3 1 22 21 
3 1 23 22 
3 1 24 23 
3 1 25 24 
3 1 26 25 
3 1 27 26 
3 1 28 27 
3 1 29 28 
3 1 30 29 
3 1 31 30 
3 1 32 31 
3 1 33 32 
3 1 34 33 
3 1 35 34 
3 1 36 35 
3 1 37 36 
3 1 2 37 
