ply
format ascii 1.0
comment VCGLIB generated
element vertex 74
property float x
property float y
property float z
element face 144
property list uchar int vertex_indices
end_header
0 -5 0 
0 5 0 
50 -5 0 
49.2404 -5 8.68241 
46.9846 -5 17.101 
43.3013 -5 25 
38.3022 -5 32.1394 
32.1394 -5 38.3022 
25 -5 43.3013 
17.101 -5 46.9846 
8.68241 -5 49.2404 
3.06152e-15 -5 50 
-8.68241 -5 49.2404 
-17.101 -5 46.9846 
-25 -5 43.3013 
-32.1394 -5 38.3022 
-38.3022 -5 32.1394 
-43.3013 -5 25 
-46.9846 -5 17.101 
-49.2404 -5 8.68241 
-50 -5 6.12303e-15 
-49.2404 -5 -8.68241 
-46.9846 -5 -17.101 
-43.3013 -5 -25 
-38.3022 -5 -32.1394 
-32.1394 -5 -38.3022 
-25 -5 -43.3013 
-17.101 -5 -46.9846 
-8.68241 -5 -49.2404 
-9.18455e-15 -5 -50 
8.68241 -5 -49.2404 
17.101 -5 -46.9846 
25 -5 -43.3013 
32.1394 -5 -38.3022 
38.3022 -5 -32.1394 
43.3013 -5 -25 
46.9846 -5 -17.101 
49.2404 -5 -8.68241 
50 5 0 
49.2404 5 8.68241 
46.9846 5 17.101 
43.3013 5 25 
38.3022 5 32.1394 
32.1394 5 38.3022 
25 5 43.3013 
17.101 5 46.9846 
8.68241 5 49.2404 
3.06152e-15 5 50 
-8.68241 5 49.2404 
-17.101 5 46.9846 
-25 5 43.3013 
-32.1394 5 38.3022 
-38.3022 5 32.1394 
-43.3013 5 25 
-46.9846 5 17.101 
-49.2404 5 8.68241 
-50 5 6.12303e-15 
-49.2404 5 -8.68241 
-46.9846 5 -17.101 
-43.3013 5 -25 
-38.3022 5 -32.1394 
-32.1394 5 -38.3022 
-25 5 -43.3013 
-17.101 5 -46.9846 
-8.68241 5 -49.2404 
-9.18455e-15 5 -50 
8.68241 5 -49.2404 
17.101 5 -46.9846 
25 5 -43.3013 
32.1394 5 -38.3022 
38.3022 5 -32.1394 
43.3013 5 -25 
46.9846 5 -17.101 
49.2404 5 -8.68241 
3 0 2 3 
3 0 3 4 
3 0 4 5 
3 0 5 6 
3 0 6 7 
3 0 7 8 
3 0 8 9 
3 0 9 10 
3 0 10 11 
3 0 11 12 
3 0 12 13 
3 0 13 14 
3 0 14 15 
3 0 15 16 
3 0 16 17 
3 0 17 18 
3 0 18 19 
3 0 19 20 
3 0 20 21 
3 0 21 22 
3 0 22 23 
3 0 23 24 
3 0 24 25 
3 0 25 26 
3 0 26 27 
3 0 27 28 
3 0 28 29 
3 0 29 30 
3 0 30 31 
3 0 31 32 
3 0 32 33 
3 0 33 34 
3 0 34 35 
3 0 35 36 
3 0 36 37 
3 0 37 2 
3 1 39 38 
3 1 40 39 
3 1 41 40 
3 1 42 41 
3 1 43 42 
3 1 44 43 
3 1 45 44 
3 1 46 45 
3 1 47 46 
3 1 48 47 
3 1 49 48 
3 1 50 49 
3 1 51 50 
3 1 52 51 
3 1 53 52 
3 1 54 53 
3 1 55 54 
3 1 56 55 
3 1 57 56 
3 1 58 57 
3 1 59 58 
3 1 60 59 
3 1 61 60 
3 1 62 61 
3 1 63 62 
3 1 64 63 
3 1 65 64 
3 1 66 65 
3 1 67 66 
3 1 68 67 
3 1 69 68 
3 1 70 69 
3 1 71 70 
3 1 72 71 
3 1 73 72 
3 1 38 73 
3 2 38 39 
3 2 39 3 
3 3 39 40 
3 3 40 4 
3 4 40 41 
3 4 41 5 
3 5 41 42 
3 5 42 6 
3 6 42 43 
3 6 43 7 
3 7 43 44 
3 7 44 8 
3 8 44 45 
3 8 45 9 
3 9 45 46 
3 9 46 10 
3 10 46 47 
3 10 47 11 
3 11 47 48 
3 11 48 12 
3 12 48 49 
3 12 49 13 
3 13 49 50 
3 13 50 14 
3 14 50 51 
3 14 51 15 
3 15 51 52 
3 15 52 16 
3 16 52 53 
3 16 53 17 
3 17 53 54 
3 17 54 18 
3 18 54 55 
3 18 55 19 
3 19 55 56 
3 19 56 20 
3 20 56 57 
3 20 57 21 
3 21 57 58 
3 21 58 22 
3 22 58 59 
3 22 59 23 
3 23 59 60 
3 23 60 24 
3 24 60 61 
3 24 61 25 
3 25 61 62 
3 25 62 26 
3 26 62 63 
3 26 63 27 
3 27 63 64 
3 27 64 28 
3 28 64 65 
3 28 65 29 
3 29 65 66 
3 29 66 30 
3 30 66 67 
3 30 67 31 
3 31 67 68 
3 31 68 32 
3 32 68 69 
3 32 69 33 
3 33 69 70 
3 33 70 34 
3 34 70 71 
3 34 71 35 
3 35 71 72 
3 35 72 36 
3 36 72 73 
3 36 73 37 
3 37 73 38 
3 37 38 2 
